# AST/ASF file generated using VICON BodyLanguage
# -----------------------------------------------
:version 1.10
:name VICON
:units
  mass 1.0
  length 0.45
  angle deg
:documentation
   .ast/.asf automatically generated from VICON data using
   VICON BodyBuilder and BodyLanguage model FoxedUp or BRILLIANT.MOD
:root
   order TX TY TZ RX RY RZ
   axis XYZ
   position 0 0 0  
   orientation 0 -0 0 
:bonedata
  begin
     id 1 
     name lhipjoint
     direction 0.432694 -0.693742 0.575759 
     length 2.19277 
     axis 0 -0 0  XYZ
  end
  begin
     id 2 
     name lfemur
     direction 0.34202 -0.939693 0  
     length 6.69022  
     axis 0 -0 20  XYZ
    dof rx ry rz
    limits (-160.0 20.0)
           (-70.0 70.0)
           (-60.0 70.0)
  end
  begin
     id 3 
     name ltibia
     direction 0.34202 -0.939693 0   
     length 6.50337   
     axis 0 -0 20   XYZ
    dof rx
    limits (-10.0 170.0)
  end
  begin
     id 4 
     name lfoot
     direction 0.158999 -0.435969 0.885805   
     length 2.70564   
     axis -90 -1.13533e-015 20   XYZ
    dof rx rz
    limits (-45.0 90.0)
           (-70.0 20.0)
  end
  begin
     id 5 
     name ltoes
     direction -0.00592919 0.00964381 0.999936   
     length 1.29929   
     axis -90 -1.13533e-015 20   XYZ
    dof rx
    limits (-90.0 20.0)
  end
  begin
     id 6 
     name rhipjoint
     direction -0.414359 -0.700339 0.581234   
     length 2.17212  
     axis 0 -0 0  XYZ 
  end
  begin
     id 7 
     name rfemur
     direction -0.34202 -0.939693 0   
     length 7.17659   
     axis 0 -0 -20   XYZ
    dof rx ry rz
    limits (-160.0 20.0)
           (-70.0 70.0)
           (-70.0 60.0)
  end
  begin
     id 8 
     name rtibia
     direction -0.34202 -0.939693 0   
     length 6.36669   
     axis 0 -0 -20   XYZ
    dof rx
    limits (-10.0 170.0)
 end
 begin
     id 9 
     name rfoot
     direction -0.137064 -0.37658 0.916188   
     length 2.22351  
     axis -90 1.13533e-015 -20   XYZ
    dof rx rz
    limits (-45.0 90.0)
           (-20.0 70.0)
  end
  begin
     id 10 
     name rtoes
     direction -0.000784077 -0.00289101 0.999996   
     length 1.09522   
     axis -90 1.13533e-015 -20   XYZ
    dof rx
    limits (-90.0 20.0)
  end
  begin
     id 11 
     name lowerback
     direction -0.0176242 0.984912 -0.172157   
     length 1.65301   
     axis 0 -0 0   XYZ
    dof rx ry rz
    limits (-20.0 45.0)
           (-30.0 30.0)
           (-30.0 30.0)
  end
  begin
     id 12 
     name upperback
     direction -0.00218128 0.998776 -0.0494072   
     length 1.67776   
     axis 0 -0 0   XYZ
    dof rx ry rz
    limits (-20.0 45.0)
           (-30.0 30.0)
           (-30.0 30.0)
  end
  begin
     id 13 
     name thorax
     direction 0.00544186 0.999658 0.0255711   
     length 1.72293   
     axis 0 -0 0   XYZ
    dof rx ry rz
    limits (-20.0 45.0)
           (-30.0 30.0)
           (-30.0 30.0)
  end
  begin
     id 14 
     name lowerneck
     direction -0.105325 0.983841 0.144785   
     length 2.14226   
     axis 0 -0 0   XYZ
    dof rx ry rz
    limits (-20.0 45.0)
           (-30.0 30.0)
           (-30.0 30.0)
  end
  begin
     id 15 
     name upperneck
     direction 0.0547957 0.988053 -0.144041   
     length 2.17508   
     axis 0 -0 0   XYZ
    dof rx ry rz
    limits (-20.0 45.0)
           (-30.0 30.0)
           (-30.0 30.0)
  end
  begin
     id 16
     name head
     direction 0.0247488 0.997534 -0.0656813  
     length 2.20048  
     axis 0 -0 0   XYZ
    dof rx ry rz
    limits (-20.0 45.0)
           (-30.0 30.0)
           (-30.0 30.0)
  end
  begin
     id 17 
     name lclavicle
     direction 0.820559 0.567247 -0.0701026  
     length 4.09615  
     axis 0 -0 0   XYZ
    dof ry rz
    limits (-20.0 10.0)
           (0.0 20.0)
  end
  begin
     id 18 
     name lhumerus
     direction 0.999977 -0.0067566 -9.96392e-005   
     length 4.59333   
     axis -180 -30 -90   XYZ
    dof rx ry rz
    limits (-60.0 90.0)
           (-90.0 90.0)
           (-90.0 90.0)
  end
  begin
     id 19
     name lradius
     direction 1 -4.48982e-011 -2.53425e-027   
     length 2.81151   
     axis -180 -30 -90   XYZ
    dof rx
    limits (-10.0 170.0)
  end
  begin
     id 20
     name lwrist
     direction 1 -4.48939e-011 -7.39254e-028   
     length 1.40576   
     axis 2.56395e-016 90 90   XYZ
    dof ry
    limits (-180.0 0.0)
 end
  begin
     id 21 
     name lhand
     direction 1 -4.48939e-011 -1.47851e-027   
     length 0.895651   
     axis 9.43423e-016 90 90   XYZ
    dof rx rz
    limits (-90.0 90.0)
           (-45.0 45.0)
  end
  begin
     id 22 
     name lfingers
     direction 1 -4.48978e-011 -2.95702e-027   
     length 0.722097   
     axis 1.88685e-015 90 90   XYZ
    dof rx
    limits (0.0 90.0)
  end
  begin
     id 23
     name lthumb
     direction 0.707107 -6.34931e-011 0.707107   
     length 1.03679   
     axis -90 45 -9.86935e-015   XYZ
    dof rx rz
    limits (-45.0 45.0)
           (-45.0 45.0)
  end
  begin
     id 24 
     name rclavicle
     direction -0.831414 0.553102 -0.0531864   
     length 4.24872  
     axis 0 -0 0   XYZ 
    dof ry rz
    limits (-10.0 20.0)
           (-20.0 0.0)
  end
  begin
     id 25 
     name rhumerus
     direction -0.999916 -0.000939607 0.0129331  
     length 4.74834   
     axis -180 30 90   XYZ
    dof rx ry rz
    limits (-90.0 60.0)
           (-90.0 90.0)
           (-90.0 90.0)
  end
  begin
     id 26 
     name rradius
     direction -1 -4.48956e-011 -1.31752e-027   
     length 2.79907   
     axis -180 30 90   XYZ
    dof rx
    limits (-10.0 170.0)
  end
  begin
     id 27 
     name rwrist
     direction -1 -4.4897e-011 -7.39254e-028   
     length 1.39954   
     axis 2.56395e-016 -90 -90   XYZ
    dof ry
    limits (-180.0 0.0)
  end
  begin
     id 28
     name rhand
     direction -0.999997 -0.00250697 0.000800838   
     length 0.953304   
     axis 9.43423e-016 -90 -90   XYZ
    dof rx rz
    limits (-90.0 90.0)
           (-45.0 45.0)
  end
  begin
     id 29
     name rfingers
     direction -1 -4.48954e-011 -2.95702e-027   
     length 0.763342   
     axis 1.88685e-015 -90 -90   XYZ
    dof rx
    limits (0.0 90.0)
  end
  begin
     id 30
     name rthumb
     direction -0.709701 -0.00217037 0.7045   
     length 1.10115   
     axis -90 -45 9.86935e-015   XYZ
    dof rx rz
    limits (-45.0 45.0)
           (-45.0 45.0)
  end
:hierarchy
  begin
    root lhipjoint rhipjoint lowerback
    lhipjoint lfemur
    lfemur ltibia
    ltibia lfoot
    lfoot ltoes
    rhipjoint rfemur
    rfemur rtibia
    rtibia rfoot
    rfoot rtoes
    lowerback upperback
    upperback thorax
    thorax lowerneck lclavicle rclavicle
    lowerneck upperneck
    upperneck head
    lclavicle lhumerus
    lhumerus lradius
    lradius lwrist
    lwrist lhand lthumb
    lhand lfingers
    rclavicle rhumerus
    rhumerus rradius
    rradius rwrist
    rwrist rhand rthumb
    rhand rfingers
  end

#!OML:ASF G:\ViconDB\ViconDB\414\test\team2\shane.ASF
:FULLY-SPECIFIED
:DEGREES
67
root 7.02475 16.8624 5.61839 -2.5044 10.7439 -6.48674
lowerback 11.8934 -5.01528 -0.704269
upperback 4.48818 -6.5895 4.27044
thorax -1.33174 -3.33934 5.67414
lowerneck -20.7228 -2.66652 -8.98684
upperneck 19.5178 -3.13071 9.47389
head 9.91784 -1.02479 4.39924
rclavicle 2.26615e-014 -3.33958e-014
rhumerus -60.0551 22.2642 -94.8268
rradius 41.9099
rwrist -323.674
rhand -38.2034 -11.3118
rfingers 7.12502
rthumb -11.2355 -40.991
lclavicle 3.32964e-014 -3.49861e-014
lhumerus -30.6225 -29.5743 98.8379
lradius 89.3809
lwrist -28.1309
lhand -53.5301 5.76429
lfingers 7.12502
lthumb -25.9735 34.0094
rfemur -33.7966 -16.4004 26.7828
rtibia 53.8265
rfoot -8.91954 2.13867
rtoes -14.3578
lfemur 24.4751 -3.73353 -9.14415
ltibia 18.751
lfoot -2.53925 -16.6513
ltoes -25.212
68
root 7.04928 16.9564 6.16723 -2.70145 11.0073 -6.54721
lowerback 11.5051 -5.16676 -0.268991
upperback 4.43625 -6.74783 4.37455
thorax -1.19801 -3.41671 5.52066
lowerneck -21.0846 -2.675 -8.84885
upperneck 20.1004 -3.05779 8.92641
head 10.1722 -1.03754 4.20574
rclavicle 2.26615e-014 -3.33958e-014
rhumerus -60.0551 22.2642 -94.8268
rradius 41.9099
rwrist -323.674
rhand -38.2034 -11.3118
rfingers 7.12502
rthumb -11.2355 -40.991
lclavicle -2.98177e-015 -1.78906e-015
lhumerus -31.3387 -30.4793 98.8801
lradius 89.3957
lwrist -27.733
lhand -53.3264 5.84776
lfingers 7.12502
lthumb -25.7784 34.1214
rfemur -33.228 -16.9224 27.2675
rtibia 48.3615
rfoot -6.49788 2.31877
rtoes -16.2234
lfemur 25.0341 -3.8711 -8.6737
ltibia 19.6525
lfoot 2.83666 -17.4568
ltoes -20.7226
69
root 7.07765 17.0304 6.71252 -2.91443 11.0905 -6.47515
lowerback 11.1089 -5.24972 0.0750358
upperback 4.44621 -6.83304 4.39606
thorax -1.0031 -3.4588 5.3178
lowerneck -21.3974 -2.73746 -8.65268
upperneck 20.4752 -3.07133 8.3942
head 10.3537 -1.08612 3.98751
rclavicle 2.26615e-014 -3.33958e-014
rhumerus -60.0551 22.2642 -94.8268
rradius 41.9099
rwrist -323.674
rhand -38.2034 -11.3118
rfingers 7.12502
rthumb -11.2355 -40.991
lclavicle -6.0679e-014 5.98342e-014
lhumerus -31.9248 -31.3312 98.7018
lradius 89.1104
lwrist -27.3347
lhand -52.6726 4.82056
lfingers 7.12502
lthumb -25.1521 33.1835
rfemur -32.715 -17.7578 27.6652
rtibia 43.4772
rfoot -4.0659 2.74615
rtoes -15.9893
lfemur 25.2947 -4.07212 -8.51541
ltibia 21.5413
lfoot 7.00446 -17.3555
ltoes -15.9196
70
root 7.10564 17.0468 7.25378 -3.23466 11.1312 -6.42495
lowerback 10.7503 -5.28216 0.343325
upperback 4.49386 -6.86108 4.49762
thorax -0.775048 -3.4748 5.2362
lowerneck -21.7672 -2.69016 -8.54723
upperneck 20.9187 -2.89933 7.87353
head 10.5558 -1.05646 3.81817
rclavicle 2.26615e-014 -3.33958e-014
rhumerus -60.0551 22.2642 -94.8268
rradius 41.9099
rwrist -323.674
rhand -38.2034 -11.3118
rfingers 7.12502
rthumb -11.2355 -40.991
lclavicle -4.50744e-014 1.70955e-014
lhumerus -32.5327 -32.0559 98.8102
lradius 88.7438
lwrist -26.7333
lhand -52.1004 4.55928
lfingers 7.12502
lthumb -24.6037 32.9981
rfemur -32.2704 -19.7693 28.4694
rtibia 39.4804
rfoot -2.84641 4.23632
rtoes -16.4014
lfemur 25.4657 -4.28658 -8.38808
ltibia 24.195
lfoot 9.42115 -16.7161
ltoes -9.5967
71
root 7.13814 17.0578 7.79514 -3.77389 11.0248 -6.48279
lowerback 10.5481 -5.25719 0.904917
upperback 4.55076 -6.78154 4.50136
thorax -0.678244 -3.42773 4.89717
lowerneck -21.8375 -2.75036 -8.51033
upperneck 21.2395 -2.90809 7.49701
head 10.6803 -1.10408 3.68025
rclavicle 2.26615e-014 -3.33958e-014
rhumerus -60.0551 22.2642 -94.8268
rradius 41.9099
rwrist -323.674
rhand -38.2034 -11.3118
rfingers 7.12502
rthumb -11.2355 -40.991
lclavicle -3.598e-014 6.63941e-014
lhumerus -33.2468 -32.8932 98.9751
lradius 88.1513
lwrist -25.7431
lhand -51.9231 4.90407
lfingers 7.12502
lthumb -24.4338 33.3659
rfemur -31.8126 -22.2855 29.4694
rtibia 36.4396
rfoot -2.88923 5.94329
rtoes -16.491
lfemur 25.6518 -4.3252 -8.11983
ltibia 27.3458
lfoot 9.47825 -14.8822
ltoes -5.34559
72
root 7.16715 17.0554 8.33811 -4.22565 10.887 -6.34988
lowerback 10.2039 -5.15218 1.19033
upperback 4.589 -6.63175 4.51124
thorax -0.494547 -3.35036 4.69665
lowerneck -21.7969 -2.87047 -8.57621
upperneck 21.4736 -2.98297 7.1722
head 10.7618 -1.18603 3.56519
rclavicle 2.26615e-014 -3.33958e-014
rhumerus -60.0551 22.2642 -94.8268
rradius 41.9099
rwrist -323.674
rhand -38.2034 -11.3118
rfingers 7.12502
rthumb -11.2355 -40.991
lclavicle 4.12478e-014 -3.65764e-014
lhumerus -34.0463 -33.6131 99.2511
lradius 87.5175
lwrist -24.774
lhand -50.8814 4.33849
lfingers 7.12502
lthumb -23.4348 32.9314
rfemur -31.5252 -25.3367 30.4295
rtibia 34.4038
rfoot -3.25414 7.41683
rtoes -16.9741
lfemur 25.6329 -3.84162 -7.88894
ltibia 30.744
lfoot 7.00085 -12.6656
ltoes -7.63331
73
root 7.20615 17.0365 8.87385 -4.60389 10.4994 -6.10222
lowerback 9.8889 -4.94731 1.73211
upperback 4.56893 -6.3257 4.35656
thorax -0.443942 -3.18519 4.17731
lowerneck -21.5613 -2.975 -8.5041
upperneck 21.6432 -3.07979 6.78511
head 10.7815 -1.27707 3.39829
rclavicle 2.26615e-014 -3.33958e-014
rhumerus -60.0551 22.2642 -94.8268
rradius 41.9099
rwrist -323.674
rhand -38.2034 -11.3118
rfingers 7.12502
rthumb -11.2355 -40.991
lclavicle 3.19049e-014 2.98177e-014
lhumerus -34.9546 -34.4437 99.5927
lradius 86.5478
lwrist -23.9818
lhand -50.572 4.53377
lfingers 7.12502
lthumb -23.138 33.1643
rfemur -31.2037 -27.7507 31.0628
rtibia 33.1612
rfoot -2.44874 7.11979
rtoes -17.7304
lfemur 25.3362 -2.92975 -7.67935
ltibia 34.3627
lfoot 4.87369 -10.0435
ltoes -8.69254
74
root 7.23036 17.0166 9.42199 -5.18162 10.1137 -5.95258
lowerback 9.74127 -4.70645 1.96175
upperback 4.55389 -5.99302 4.35703
thorax -0.422679 -3.01462 4.00626
lowerneck -21.3075 -3.16813 -8.62202
upperneck 21.9627 -3.26098 6.46118
head 10.865 -1.41638 3.27662
rclavicle 2.26615e-014 -3.33958e-014
rhumerus -60.0551 22.2642 -94.8268
rradius 41.9099
rwrist -323.674
rhand -38.2034 -11.3118
rfingers 7.12502
rthumb -11.2355 -40.991
lclavicle 5.25785e-014 -2.78299e-014
lhumerus -35.9321 -35.0342 100.037
lradius 85.4441
lwrist -23.0566
lhand -50.4191 4.35564
lfingers 7.12502
lthumb -22.9913 33.0045
rfemur -30.3603 -28.9018 31.0353
rtibia 32.6163
rfoot -0.877462 5.27978
rtoes -13.5913
lfemur 25.1657 -2.34661 -7.34047
ltibia 38.0949
lfoot 3.50976 -7.23331
ltoes -8.27648
75
root 7.25479 16.9589 9.96208 -5.76115 9.89252 -5.73383
lowerback 9.58158 -4.47333 2.11075
upperback 4.55237 -5.68009 4.29377
thorax -0.375895 -2.85449 3.81414
lowerneck -21.1582 -3.28394 -8.42214
upperneck 22.3752 -3.39135 5.9786
head 10.9888 -1.5242 3.05245
rclavicle 2.26615e-014 -3.33958e-014
rhumerus -60.0551 22.2642 -94.8268
rradius 41.9099
rwrist -323.674
rhand -38.2034 -11.3118
rfingers 7.12502
rthumb -11.2355 -40.991
lclavicle 8.2595e-014 -4.53229e-014
lhumerus -36.9287 -35.573 100.471
lradius 84.1802
lwrist -22.2368
lhand -50.2286 4.07282
lfingers 7.12502
lthumb -22.8085 32.7443
rfemur -29.0725 -30.3909 30.9748
rtibia 32.5004
rfoot 0.0857882 3.93973
rtoes -15.0983
lfemur 24.8089 -1.74864 -6.89796
ltibia 41.8489
lfoot 2.5074 -4.89246
ltoes -6.54805
